# xmcd
#
# Track frame offsets:
#  150
#  42155
#  59240
#  77852
#  98359
#  109118
#  128408
#  148494
#  167194
#  186178
#
# Disc length: 2713 seconds
#
# Revision: 0
# Processed by: cddbd v1.5.1PL2 Copyright (c) Steve Scherf et al.
# Submitted via: Collectorz.com_Music_Collector 6.10
#
DISCID=8b0a970a
DTITLE=Various Artist - De leukste conferences and Liedjes CD 1
DYEAR=1998
DGENRE=
TTITLE0=Henk Elsink - De Lift
TTITLE1=Martine Bijl - Ik word nooit meer nummer één
TTITLE2=Jasperina De Jong - Meisje uit de provincie in het magies sentrum
TTITLE3=Duinhoven, Ton van - Nou Jaap Swart eindelijk opsodemietert (de Suppoost II)
TTITLE4=Tineke Schouten - De eeuwige vrijgezel
TTITLE5=Ivan Heylen - De wilde boerndochtere
TTITLE6=Simon Carmiggelt - Een rondje
TTITLE7=Frits Lambrechts - Kwik kwik slow
TTITLE8=Ted de Braak - 'n Glaasje Madeira
TTITLE9=Cabaret Polichinelle-Robert Kreis - De bloes
EXTD=
EXTT0=
EXTT1=
EXTT2=
EXTT3=
EXTT4=
EXTT5=
EXTT6=
EXTT7=
EXTT8=
EXTT9=
PLAYORDER=
